<?xml version="1.0" encoding="UTF-8" standalone="no"?>
<svg
   xmlns:dc="http://purl.org/dc/elements/1.1/"
   xmlns:cc="http://creativecommons.org/ns#"
   xmlns:rdf="http://www.w3.org/1999/02/22-rdf-syntax-ns#"
   xmlns:svg="http://www.w3.org/2000/svg"
   xmlns="http://www.w3.org/2000/svg"
   xmlns:xlink="http://www.w3.org/1999/xlink"
   xmlns:sodipodi="http://sodipodi.sourceforge.net/DTD/sodipodi-0.dtd"
   xmlns:inkscape="http://www.inkscape.org/namespaces/inkscape"
   width="800"
   height="75"
   viewBox="0 0 211.66667 19.84375"
   version="1.1"
   id="svg1004"
   inkscape:version="1.0 (1.0+r73)"
   sodipodi:docname="netinstall_logo_21.svg"
   inkscape:export-filename="/home/lliurex/netinstall_logo_21.png"
   inkscape:export-xdpi="96"
   inkscape:export-ydpi="96">
  <defs
     id="defs998">
    <linearGradient
       id="linearGradient857"
       inkscape:collect="always">
      <stop
         id="stop853"
         offset="0"
         style="stop-color:#ffffff;stop-opacity:1;" />
      <stop
         id="stop855"
         offset="1"
         style="stop-color:#000080;stop-opacity:1" />
    </linearGradient>
    <linearGradient
       inkscape:collect="always"
       id="linearGradient1577">
      <stop
         style="stop-color:#000080;stop-opacity:1;"
         offset="0"
         id="stop1573" />
      <stop
         style="stop-color:#1a1a1a;stop-opacity:1"
         offset="1"
         id="stop1575" />
    </linearGradient>
    <linearGradient
       inkscape:collect="always"
       xlink:href="#linearGradient1577"
       id="linearGradient1579"
       x1="87.891846"
       y1="145.55367"
       x2="194.02313"
       y2="156.40198"
       gradientUnits="userSpaceOnUse" />
    <linearGradient
       gradientUnits="userSpaceOnUse"
       y2="156.40198"
       x2="194.02313"
       y1="145.55367"
       x1="87.891846"
       id="linearGradient1579-3"
       xlink:href="#linearGradient1577"
       inkscape:collect="always"
       gradientTransform="translate(1.0587313,1.0978299)" />
    <filter
       inkscape:collect="always"
       style="color-interpolation-filters:sRGB"
       id="filter1889"
       x="-0.010824999"
       width="1.02165"
       y="-0.071151927"
       height="1.1423039">
      <feGaussianBlur
         inkscape:collect="always"
         stdDeviation="0.48611769"
         id="feGaussianBlur1891" />
    </filter>
    <linearGradient
       inkscape:collect="always"
       xlink:href="#linearGradient1577"
       id="linearGradient1897"
       gradientUnits="userSpaceOnUse"
       x1="87.891846"
       y1="145.55367"
       x2="194.02313"
       y2="156.40198" />
    <linearGradient
       gradientUnits="userSpaceOnUse"
       y2="34.172062"
       x2="103.77066"
       y1="-10.910428"
       x1="103.51527"
       id="linearGradient859"
       xlink:href="#linearGradient857"
       inkscape:collect="always"
       gradientTransform="matrix(0.8428278,0,0,0.1247857,12.873772,16.738882)" />
  </defs>
  <sodipodi:namedview
     inkscape:pagecheckerboard="true"
     id="base"
     pagecolor="#ffffff"
     bordercolor="#666666"
     borderopacity="1.0"
     inkscape:pageopacity="0.0"
     inkscape:pageshadow="2"
     inkscape:zoom="1.979899"
     inkscape:cx="314.38324"
     inkscape:cy="186.90517"
     inkscape:document-units="px"
     inkscape:current-layer="layer1"
     inkscape:document-rotation="0"
     showgrid="false"
     units="px"
     inkscape:window-width="3440"
     inkscape:window-height="1411"
     inkscape:window-x="1920"
     inkscape:window-y="0"
     inkscape:window-maximized="1" />
  <metadata
     id="metadata1001">
    <rdf:RDF>
      <cc:Work
         rdf:about="">
        <dc:format>image/svg+xml</dc:format>
        <dc:type
           rdf:resource="http://purl.org/dc/dcmitype/StillImage" />
        <dc:title></dc:title>
      </cc:Work>
    </rdf:RDF>
  </metadata>
  <g
     inkscape:label="Capa 1"
     inkscape:groupmode="layer"
     id="layer1">
    <rect
       rx="3.141345"
       y="-4.9137001"
       x="-28.763153"
       height="30.483606"
       width="272.444"
       id="rect846"
       style="opacity:1;fill:#ffffff;fill-opacity:0.986913;stroke-width:0.264583" />
    <rect
       rx="2.6476128"
       y="15.305511"
       x="-7.1250668"
       height="5.8038807"
       width="223.3575"
       id="rect851"
       style="opacity:0.1;fill:url(#linearGradient859);fill-opacity:1;stroke-width:0.0858055" />
    <g
       id="g1895"
       transform="matrix(0.81088561,0,0,0.71420274,-63.950279,-97.677533)">
      <path
         inkscape:export-filename="/home/quique/rect815.png"
         inkscape:export-ydpi="96"
         inkscape:export-xdpi="96"
         inkscape:connector-curvature="0"
         id="path2"
         d="m 115.19081,141.48002 c -0.7414,0 -1.34188,0.60081 -1.34188,1.34186 v 0.001 8.91484 0.002 c 0,0.74075 0.60048,1.34226 1.34188,1.34226 0.74139,0 1.34305,-0.60151 1.34305,-1.34226 0,-0.001 -0.001,-0.001 -0.001,-0.002 v -8.91466 c 0,-0.001 0.001,-0.001 0.001,-0.001 0,-0.74106 -0.60166,-1.34187 -1.34305,-1.34187 z m 62.6535,2.68101 c -0.38682,0.004 -0.76896,0.17322 -1.03083,0.49743 -0.46649,0.57641 -0.37725,1.42174 0.19851,1.88857 l 5.11623,4.14168 -5.60272,4.53517 c -0.57638,0.46588 -0.66572,1.31199 -0.19892,1.88778 0.26551,0.3284 0.65277,0.49742 1.04412,0.49742 0.29681,0 0.59477,-0.0975 0.84366,-0.29814 l 6.29164,-5.09397 6.29088,5.09397 c 0.24857,0.20101 0.54746,0.29814 0.84365,0.29814 0.39168,0 0.77933,-0.16963 1.0445,-0.49742 0.46619,-0.57579 0.37625,-1.4219 -0.19889,-1.88778 l -5.60314,-4.53517 5.11625,-4.14168 c 0.57607,-0.46683 0.665,-1.31216 0.1985,-1.88857 -0.46555,-0.57576 -1.31099,-0.6649 -1.88737,-0.19811 l -5.80438,4.6989 -5.80514,-4.6989 c -0.25218,-0.20422 -0.55569,-0.30204 -0.85655,-0.29932 z m -91.294747,0.023 c -0.74137,0 -1.34266,0.60142 -1.34266,1.34344 0,0.008 0.002,0.0171 0.002,0.0262 h -0.002 v 5.93957 c 0,3.35909 2.73273,6.09236 6.09119,6.09236 h 5.16626 c 0.002,0 0.002,2.9e-4 0.005,2.9e-4 0.741391,0 1.342661,-0.60065 1.342661,-1.34267 -2.5e-4,-0.74077 -0.60127,-1.34188 -1.342661,-1.34188 h -2.91e-4 -5.17055 c -1.87851,0 -3.40667,-1.5297 -3.40667,-3.40823 v -5.93944 h -0.005 c 5.56e-4,-0.009 0.005,-0.0178 0.005,-0.0262 0,-0.74203 -0.60048,-1.34344 -1.34186,-1.34344 z m 13.494937,0 c -0.741387,0 -1.343037,0.60142 -1.343037,1.34344 0,0.008 0.002,0.0173 0.002,0.0262 h -0.002 v 5.93957 c 0,3.35909 2.732877,6.09236 6.091957,6.09236 h 5.16549 c 0.002,0 0.005,2.9e-4 0.005,2.9e-4 0.74136,0 1.34188,-0.60065 1.34188,-1.34267 -2.9e-4,-0.74037 -0.59995,-1.34124 -1.34109,-1.34188 h -5.17072 c -1.87882,0 -3.40666,-1.5297 -3.40666,-3.40823 v -5.93944 h -0.005 c 5.6e-4,-0.009 0.005,-0.0178 0.005,-0.0262 0,-0.74203 -0.60065,-1.34344 -1.34264,-1.34344 z m 20.96436,0 c -0.74139,0 -1.34228,0.60142 -1.34228,1.34344 0,0.008 0.002,0.0173 0.002,0.0262 h -0.002 v 5.93998 c 0,3.35908 2.73281,6.09195 6.09158,6.09195 h 4.59614 c 3.35908,0 6.09118,-2.73287 6.09118,-6.09195 v -5.93997 h -0.002 c 5.3e-4,-0.009 0.002,-0.0178 0.002,-0.0262 h 2.7e-4 c 0,-0.74203 -0.60089,-1.34345 -1.34228,-1.34345 -0.74136,0 -1.34266,0.60142 -1.34266,1.34345 0,0.008 0.002,0.0173 0.002,0.0262 h -0.002 v 5.93998 c 0,1.87851 -1.52813,3.40782 -3.40664,3.40782 h -4.59561 c -1.87853,0 -3.40745,-1.52931 -3.40745,-3.40782 v -5.93998 h -0.002 c 0,-0.009 0.002,-0.0178 0.002,-0.0262 0,-0.74203 -0.60089,-1.34345 -1.34226,-1.34344 z m 19.55564,0 c -0.742,0 -1.34304,0.60142 -1.34304,1.34344 v 0.002 10.71156 0.002 c 0,0.74138 0.60104,1.34383 1.34304,1.34383 0.74108,0 1.34163,-0.60168 1.34227,-1.34305 v -3.35249 h 8.97305 c 0.92392,0 2.26602,0.65 2.26602,1.66816 v 1.6787 0.004 c 0,0.74141 0.60089,1.34345 1.34227,1.34345 0.74138,0 1.34163,-0.60126 1.34228,-1.34267 v -1.68456 c 0,-1.17232 -0.41492,-2.30623 -1.413,-2.91273 0.83874,-0.65122 1.41377,-1.89179 1.41377,-3.10811 0,-2.56324 -1.79024,-4.3527 -4.35347,-4.3527 h -10.91084 z m 32.61216,4e-4 c -0.001,0 -0.002,0.001 -0.002,0.001 h -8.54985 c -3.35846,0 -6.0908,2.73201 -6.0908,6.09081 v 1.2176 c 0,3.3591 2.73265,6.09198 6.0908,6.09198 h 8.54712 c 0.001,0 0.005,2.6e-4 0.005,2.6e-4 0.74137,0 1.34225,-0.60065 1.34225,-1.34266 0,-0.74108 -0.60125,-1.34226 -1.34264,-1.34227 v -4e-4 h -8.55218 c -1.62679,0 -2.98834,-1.14784 -3.3246,-2.67475 h 10.52243 c 0.002,0 0.005,0.001 0.007,0.001 0.74108,0 1.34187,-0.60106 1.34187,-1.34305 0,-0.74138 -0.60079,-1.34227 -1.34187,-1.34227 h -0.001 -10.52673 c 0.33628,-1.52722 1.69782,-2.6732 3.32461,-2.6732 h 8.54986 0.002 c 0.74137,0 1.34188,-0.60082 1.34188,-1.34189 0,-0.74202 -0.60051,-1.34342 -1.34188,-1.34342 z m -31.2695,2.68491 h 9.57012 c 0.62369,0 1.66895,0.21648 1.66895,1.66857 0,0.91984 -0.74878,1.66854 -1.66895,1.66854 h -9.57012 z m -26.67845,7.78748 c -0.88853,0 -1.60993,0.72141 -1.60993,1.60992 0,0.89011 0.7214,1.61034 1.60993,1.61034 0.88917,0 1.60993,-0.72023 1.60993,-1.61034 0,-0.88851 -0.72047,-1.60992 -1.60993,-1.60992 z"
         style="fill:url(#linearGradient1897);fill-opacity:1;stroke-width:0.390805" />
      <path
         style="opacity:0.497728;fill:url(#linearGradient1579-3);fill-opacity:1;stroke-width:0.390805;filter:url(#filter1889)"
         d="m 116.24954,142.57784 c -0.7414,0 -1.34188,0.60081 -1.34188,1.34186 v 0.001 8.91484 0.002 c 0,0.74075 0.60048,1.34226 1.34188,1.34226 0.7414,0 1.34306,-0.60151 1.34306,-1.34226 0,-10e-4 -0.001,-10e-4 -0.001,-0.002 v -8.91466 c 0,-0.001 0.001,-0.001 0.001,-0.001 0,-0.74106 -0.60166,-1.34187 -1.34306,-1.34187 z m 62.65351,2.68101 c -0.38682,0.004 -0.76896,0.17322 -1.03083,0.49743 -0.4665,0.57641 -0.37725,1.42174 0.19851,1.88857 l 5.11622,4.14168 -5.60271,4.53517 c -0.57639,0.46588 -0.66572,1.31199 -0.19893,1.88778 0.26552,0.3284 0.65278,0.49742 1.04412,0.49742 0.29682,0 0.59477,-0.0975 0.84367,-0.29814 l 6.29164,-5.09397 6.29088,5.09397 c 0.24857,0.20101 0.54746,0.29814 0.84365,0.29814 0.39168,0 0.77933,-0.16963 1.0445,-0.49742 0.46619,-0.57579 0.37625,-1.4219 -0.19889,-1.88778 l -5.60314,-4.53517 5.11625,-4.14168 c 0.57607,-0.46683 0.665,-1.31216 0.1985,-1.88857 -0.46555,-0.57576 -1.31099,-0.6649 -1.88737,-0.19811 l -5.80438,4.6989 -5.80514,-4.6989 c -0.25218,-0.20422 -0.55569,-0.30204 -0.85655,-0.29932 z m -91.294756,0.023 c -0.74137,0 -1.34266,0.60142 -1.34266,1.34344 0,0.008 0.002,0.0171 0.002,0.0262 h -0.002 v 5.93957 c 0,3.35909 2.73273,6.09236 6.09119,6.09236 h 5.16626 c 0.002,0 0.002,2.9e-4 0.005,2.9e-4 0.74139,0 1.34266,-0.60065 1.34266,-1.34267 -2.5e-4,-0.74077 -0.60127,-1.34188 -1.34266,-1.34188 h -2.9e-4 -5.17055 c -1.87851,0 -3.40667,-1.5297 -3.40667,-3.40823 v -5.93944 h -0.005 c 5.5e-4,-0.009 0.005,-0.0178 0.005,-0.0262 0,-0.74203 -0.60048,-1.34344 -1.34186,-1.34344 z m 13.494936,0 c -0.74139,0 -1.343036,0.60142 -1.343036,1.34344 0,0.008 0.002,0.0173 0.002,0.0262 h -0.002 v 5.93957 c 0,3.35909 2.732876,6.09236 6.091956,6.09236 h 5.16549 c 0.002,0 0.005,2.9e-4 0.005,2.9e-4 0.74136,0 1.34188,-0.60065 1.34188,-1.34267 -2.9e-4,-0.74037 -0.59995,-1.34124 -1.34109,-1.34188 h -5.17072 c -1.87882,0 -3.40666,-1.5297 -3.40666,-3.40823 v -5.93944 h -0.005 c 5.6e-4,-0.009 0.005,-0.0178 0.005,-0.0262 0,-0.74203 -0.60065,-1.34344 -1.34264,-1.34344 z m 20.96436,0 c -0.74139,0 -1.34228,0.60142 -1.34228,1.34344 0,0.008 0.002,0.0173 0.002,0.0262 h -0.002 v 5.93998 c 0,3.35908 2.73281,6.09195 6.09159,6.09195 h 4.59613 c 3.35909,0 6.09119,-2.73287 6.09119,-6.09195 v -5.93997 h -0.002 c 5.3e-4,-0.009 0.002,-0.0178 0.002,-0.0262 h 2.6e-4 c 0,-0.74203 -0.60089,-1.34345 -1.34228,-1.34345 -0.74136,0 -1.34266,0.60142 -1.34266,1.34345 0,0.008 0.002,0.0173 0.002,0.0262 h -0.002 v 5.93998 c 0,1.87851 -1.52813,3.40782 -3.40664,3.40782 h -4.59561 c -1.87853,0 -3.40745,-1.52931 -3.40745,-3.40782 v -5.93998 h -0.002 c 0,-0.009 0.002,-0.0178 0.002,-0.0262 0,-0.74203 -0.60089,-1.34345 -1.34226,-1.34344 z m 19.55565,0 c -0.742,0 -1.34304,0.60142 -1.34304,1.34344 v 0.002 10.71156 0.002 c 0,0.74138 0.60104,1.34383 1.34304,1.34383 0.74108,0 1.34162,-0.60168 1.34226,-1.34305 v -3.3525 h 8.97305 c 0.92392,0 2.26603,0.65 2.26603,1.66816 v 1.6787 0.004 c 0,0.74141 0.60089,1.34345 1.34226,1.34345 0.74139,0 1.34163,-0.60126 1.34229,-1.34267 v -1.68456 c 0,-1.17232 -0.41492,-2.30623 -1.413,-2.91273 0.83874,-0.65122 1.41377,-1.89179 1.41377,-3.10811 0,-2.56324 -1.79024,-4.3527 -4.35347,-4.3527 h -10.91084 z m 32.61215,4e-4 c -0.001,0 -0.002,0.001 -0.002,0.001 h -8.54985 c -3.35846,0 -6.0908,2.73201 -6.0908,6.09081 v 1.2176 c 0,3.3591 2.73265,6.09198 6.0908,6.09198 h 8.54712 c 0.001,0 0.005,2.6e-4 0.005,2.6e-4 0.74137,0 1.34225,-0.60065 1.34225,-1.34266 0,-0.74108 -0.60125,-1.34226 -1.34264,-1.34227 v -4e-4 h -8.55218 c -1.62679,0 -2.98834,-1.14784 -3.3246,-2.67475 h 10.52243 c 0.002,0 0.005,10e-4 0.007,10e-4 0.74109,0 1.34187,-0.60106 1.34187,-1.34305 0,-0.74138 -0.60078,-1.34227 -1.34187,-1.34227 h -0.001 -10.52673 c 0.33628,-1.52722 1.69783,-2.6732 3.32461,-2.6732 h 8.54987 0.002 c 0.74137,0 1.34188,-0.60082 1.34188,-1.34189 0,-0.74202 -0.60051,-1.34342 -1.34188,-1.34342 z m -31.26949,2.68491 h 9.57012 c 0.62368,0 1.66894,0.21648 1.66894,1.66857 0,0.91984 -0.74877,1.66854 -1.66894,1.66854 h -9.57012 z m -26.67845,7.78748 c -0.88854,0 -1.60994,0.72141 -1.60994,1.60992 0,0.89011 0.7214,1.61034 1.60994,1.61034 0.88916,0 1.60993,-0.72023 1.60993,-1.61034 0,-0.88851 -0.72047,-1.60992 -1.60993,-1.60992 z"
         id="path2-5"
         inkscape:connector-curvature="0"
         inkscape:export-xdpi="96"
         inkscape:export-ydpi="96"
         inkscape:export-filename="/home/quique/rect815.png" />
    </g>
  </g>
</svg>
